<svg id="Layer_1" data-name="Layer 1" xmlns="http://www.w3.org/2000/svg" xmlns:xlink="http://www.w3.org/1999/xlink" viewBox="0 0 512 512"><defs><style>.cls-1{fill:url(#radial-gradient);}.cls-2{fill:#c27338;}.cls-3{fill:#513523;}</style><radialGradient id="radial-gradient" cx="228.78" cy="247.16" r="179.25" gradientTransform="translate(0 -13.84) scale(1 1.12)" gradientUnits="userSpaceOnUse"><stop offset="0.06" stop-color="#efc481"/><stop offset="0.56" stop-color="#d79e60"/><stop offset="1" stop-color="#c27b43"/></radialGradient></defs><path class="cls-1" d="M485.23,347.54C492.09,160.81,199.79,52.26,51,213.45,8.06,260,36.43,360.91,94.56,373.51,137,382.7,191.72,394.1,246.28,394.1,423.82,394.09,426.26,370.86,485.23,347.54Z"/><path class="cls-2" d="M490.8,301c5.43,18.9-8.11,66.13-25.3,70.78-44.38,12-132,35-223.31,36C121.78,409.06,19.9,388.93,16.08,337-3.08,75.68,415.86,40,490.8,301ZM87.37,354.56l58.77,10c56.31,9.58,113.54,13,170.05,5l127.22-17.71c18.07-2.56,31.33-51,24.91-70.06C412,114.61,130.28,91.62,47.91,238.44,26.05,277.39,46.66,347.64,87.37,354.56Z"/><path class="cls-3" d="M66.93,245.28c-1.35-7.07.5-17.25,10.52-19.63s15.45,1,16.8,8,2.94,12.7-7.08,15.08S68.27,252.35,66.93,245.28Z"/><path class="cls-3" d="M322.32,167.24c-1.35-7.07.5-17.25,10.52-19.63s15.45,1,16.79,8,2.94,12.7-7.08,15.08S323.66,174.31,322.32,167.24Z"/><path class="cls-3" d="M125.36,166.13c-4.23-12.57,3.3-35.28,21.11-42.76s37.36-4.89,41.6,7.68-.19,24.32-18,31.8S129.59,178.7,125.36,166.13Z"/><path class="cls-3" d="M156.47,268.43C155.75,255,169,235.81,188,234.54s37,7.65,37.71,21.05-6.61,23.17-25.61,24.44S157.18,281.83,156.47,268.43Z"/><path class="cls-3" d="M418.51,199c8.91-9,30.6-9.59,43.4,6.13s17.86,37,8.95,46-20.32,8.78-33.11-6.94S409.61,208,418.51,199Z"/></svg>