<svg id="Layer_1" data-name="Layer 1" xmlns="http://www.w3.org/2000/svg" xmlns:xlink="http://www.w3.org/1999/xlink" viewBox="0 0 1365 889.89">
	<defs>
		<style>
			.cls-1{fill:#b52828;}.cls-2{fill:#dbfdff;}.cls-3{fill:url(#radial-gradient);}.cls-4{fill:#c27338;}.cls-5{fill:url(#radial-gradient-2);}.cls-6{fill:url(#radial-gradient-3);}.cls-7{fill:url(#radial-gradient-4);}.cls-8{fill:#adadad;}.cls-9{font-size:36px;font-family:CenturyGothic, Century Gothic;}.cls-10,.cls-9{fill:#333;}.cls-11{fill:#feff7b;}.cls-12{fill:#dcda68;}.cls-13{fill:#191919;}.cls-14{fill:gray;}.cls-15,.cls-16{fill:#717272;}.cls-16{font-size:21px;font-family:Bebas-Regular, Bebas;}.cls-17{letter-spacing:0em;}.cls-18,.cls-20{fill:#fff;}.cls-19{fill:#ccc;}.cls-20{opacity:0.16;}.cls-21{fill:#931f1f;}.cls-22{clip-path:url(#clip-path);}.cls-23{fill:none;stroke:#931f1f;stroke-miterlimit:10;stroke-width:6px;}.cls-24{fill:#5d3815;}.cls-25{fill:#1d1a19;}
		</style>
		<radialGradient id="radial-gradient" cx="383.11" cy="203.59" r="43" gradientUnits="userSpaceOnUse">
			<stop offset="0.06" stop-color="#efc481" />
			<stop offset="1" stop-color="#c27b43" />
		</radialGradient>
		<radialGradient id="radial-gradient-2" cx="579.57" cy="210.41" r="45.75" xlink:href="#radial-gradient" />
		<radialGradient id="radial-gradient-3" cx="1014.3" cy="216.13" r="45.13" xlink:href="#radial-gradient" />
		<radialGradient id="radial-gradient-4" cx="780.91" cy="210.35" r="44.68" gradientUnits="userSpaceOnUse">
			<stop offset="0.06" stop-color="#efc481" />
			<stop offset="0.56" stop-color="#d79e60" />
			<stop offset="1" stop-color="#c27b43" />
		</radialGradient>
		<clipPath id="clip-path">
			<path class="cls-1" d="M1214.93,358.41l-27.56,125.16s-55.88,131.6-25.48,144.63c31.54,13.52,39.3-55.57,39.3-55.57s5-10,.22,23.5c-8.78,61.85-22.63,80.33,60.68,98,54.1,11.5,49.26-92.6,65.45-172.29s29.78-140.47,29.78-140.47Z" />
		</clipPath>
	</defs>
	<rect id="blue-bg" class="cls-2" width="1365" height="889.89" />
	<g id="boller">
		<path class="cls-3" d="M313.85,232.67c1.91-57.32,116.17-62.1,113.5,0Z" />
		<path class="cls-4" d="M429.11,234.67c0-1.76-122.78,3.56-117.24-2.33C315.39,171.76,432.92,167.24,429.11,234.67Zm-112.77-4H425.45C424.64,175.37,322,176,316.34,230.67Z" />
		<path class="cls-5" d="M518.82,232.67c5-63,117-55.58,121.5,0Z" />
		<path class="cls-4" d="M642.48,234.67c-.06-1.77-131.17,3.58-125.63-2.33C521.25,167.82,639.55,173.31,642.48,234.67Zm-121.17-4H638C628.09,178.22,529.41,173.44,521.31,230.67Z" />
		<path class="cls-6" d="M1057.47,233.67c-1.78-61.1-118.93-55.09-120.12,0C937.35,233.67,1057.47,233.67,1057.47,233.67Z" />
		<path class="cls-4" d="M1059.81,235.67c-.31-1.51-128.73,3.09-124.46-2.1C942.07,172.48,1056.26,170,1059.81,235.67Zm-120.19-4H1055C1047.45,175,948.47,179.41,939.62,231.67Z" />
		<path class="cls-7" d="M847.68,232.67c2.08-50.76-121.55-65.54-118.38,0Z" />
		<path class="cls-4" d="M849.9,234.67c-.3-1.53-126.23,3.07-122.6-2C726.2,164.86,850.15,176.33,849.9,234.67Zm-118.52-4H845.3C838.61,178.81,732.77,173.71,731.38,230.67Z" />
	</g>
	<rect id="tray" class="cls-8" x="290.91" y="220.34" width="783.41" height="33.96" />
	<g id="tekst">
		<text class="cls-9" transform="translate(363.42 123.72)">
			Lag deg rykende fersk bolle-ipsum!
		</text>
		<path class="cls-10" d="M502.47,81.13V38h6.78a35.5,35.5,0,0,1,8.62.76A11.6,11.6,0,0,1,524,42.6a10,10,0,0,1,2.29,6.56,9.59,9.59,0,0,1-1,4.47,11.32,11.32,0,0,1-3.38,3.77A13.55,13.55,0,0,1,527.64,62a11.68,11.68,0,0,1,1.81,6.55,12.4,12.4,0,0,1-6.71,11.09,18.73,18.73,0,0,1-8.19,1.48Zm8.2-35.28v9.09h1.8a6.66,6.66,0,0,0,4.45-1.26,4.32,4.32,0,0,0,1.46-3.43A4,4,0,0,0,517,47a6.35,6.35,0,0,0-4.21-1.19Zm0,16.41V73.31h2.06c3.41,0,5.7-.43,6.89-1.29a4.36,4.36,0,0,0,1.78-3.75,5.27,5.27,0,0,0-2.09-4.4q-2.09-1.6-6.93-1.61Z" />
		<path class="cls-4" d="M551.37,58a19.6,19.6,0,0,1,8.48,1.87,15.3,15.3,0,0,1,6.2,5.08,12,12,0,0,1,2.22,6.93c0,2.5-.41,5.77-1.91,8s-5.74,2.93-8.3,3.19a58.67,58.67,0,0,1-7,0c-4.57,0-2.42.25-8.81-.64-4.17-.58-7.39-6.59-7.39-10.45q0-6.19,5.48-10.33A18,18,0,0,1,551.37,58Z" />
		<path class="cls-10" d="M573.93,37h8V81.13h-8Z" />
		<path class="cls-10" d="M588.31,37h8V81.13h-8Z" />
		<path class="cls-10" d="M635.51,67.5h-25.7a8.61,8.61,0,0,0,3,5.41,9.33,9.33,0,0,0,6.17,2,10.67,10.67,0,0,0,7.7-3.14L633.4,75a15.85,15.85,0,0,1-6,5.28A18.74,18.74,0,0,1,619,82a16.49,16.49,0,0,1-12.21-4.73,16.1,16.1,0,0,1-4.72-11.85,16.66,16.66,0,0,1,4.7-12.12,15.82,15.82,0,0,1,11.79-4.82,16.39,16.39,0,0,1,12.25,4.82q4.73,4.81,4.72,12.73Zm-8-6.29a8,8,0,0,0-3.13-4.34A9.07,9.07,0,0,0,619,55.2a9.63,9.63,0,0,0-5.87,1.87,10.46,10.46,0,0,0-2.93,4.14Z" />
		<path class="cls-10" d="M643.1,61.53H658V69H643.1Z" />
		<path class="cls-10" d="M670.3,36.13a4.93,4.93,0,0,1,3.61,1.52,5.08,5.08,0,0,1,1.5,3.69A5,5,0,0,1,673.92,45a4.81,4.81,0,0,1-3.56,1.51A4.89,4.89,0,0,1,666.72,45a5.14,5.14,0,0,1-1.5-3.73,5.09,5.09,0,0,1,5.08-5.1Zm-4,13.12h8V81.13h-8Z" />
		<path class="cls-10" d="M689.5,49.25v3.52a15,15,0,0,1,4.69-3.25,13.39,13.39,0,0,1,5.39-1.09,13.91,13.91,0,0,1,10.61,4.72,17.11,17.11,0,0,1,4.36,12.1A16.71,16.71,0,0,1,710,77.16,14.22,14.22,0,0,1,699.35,82a13.35,13.35,0,0,1-5.13-1,15.83,15.83,0,0,1-4.72-3.21v15h-7.94V49.25Zm8.41,6.57a8.34,8.34,0,0,0-6.27,2.57,9.3,9.3,0,0,0-2.49,6.74A9.57,9.57,0,0,0,691.64,72a8.27,8.27,0,0,0,6.27,2.62A8.16,8.16,0,0,0,704.08,72a9.54,9.54,0,0,0,2.5-6.8,9.43,9.43,0,0,0-2.46-6.72A8.14,8.14,0,0,0,697.91,55.82Z" />
		<path class="cls-10" d="M740.68,53.71l-4.95,4.95c-2-2-3.84-3-5.48-3a3.48,3.48,0,0,0-2.11.57,1.7,1.7,0,0,0-.27,2.61,9.05,9.05,0,0,0,2.38,1.48l2.93,1.46q4.64,2.3,6.36,4.66a9.71,9.71,0,0,1-1.39,12.66A12,12,0,0,1,729.79,82a13.32,13.32,0,0,1-11.14-5.45l4.92-5.36a11.58,11.58,0,0,0,3.3,2.65,7.35,7.35,0,0,0,3.35,1,4,4,0,0,0,2.55-.76,2.21,2.21,0,0,0,1-1.76q0-1.84-3.49-3.6l-2.69-1.35q-7.74-3.9-7.74-9.76a8.49,8.49,0,0,1,2.92-6.46,10.62,10.62,0,0,1,7.46-2.68,12.89,12.89,0,0,1,10.48,5.28Z" />
		<path class="cls-10" d="M747.54,49.25h8.09V64.6a21.38,21.38,0,0,0,.61,6.23,5.41,5.41,0,0,0,2,2.71,5.71,5.71,0,0,0,3.37,1,5.83,5.83,0,0,0,3.39-1,5.54,5.54,0,0,0,2.07-2.79,21.58,21.58,0,0,0,.5-5.89V49.25h8V62.76q0,8.34-1.32,11.42a12.52,12.52,0,0,1-4.75,5.76,14.5,14.5,0,0,1-8,2A14.1,14.1,0,0,1,753,79.6a12.36,12.36,0,0,1-4.55-6.53q-.94-2.89-.94-10.55Z" />
		<path class="cls-10" d="M783.52,49.25h8v3.66a13.68,13.68,0,0,1,4.56-3.36,13.22,13.22,0,0,1,5.47-1.12,10.12,10.12,0,0,1,5.39,1.47,10.46,10.46,0,0,1,3.87,4.27,12.94,12.94,0,0,1,4.68-4.27,12.74,12.74,0,0,1,6.06-1.47,11.27,11.27,0,0,1,6,1.58,9.15,9.15,0,0,1,3.7,4.14c.76,1.69,1.13,4.46,1.13,8.29V81.13H824.3V65c0-3.62-.45-6.06-1.35-7.34a4.62,4.62,0,0,0-4-1.92,6.14,6.14,0,0,0-3.68,1.17,7,7,0,0,0-2.42,3.24,20.29,20.29,0,0,0-.79,6.63V81.13H804V65.69a21.82,21.82,0,0,0-.63-6.2,5.56,5.56,0,0,0-1.89-2.85,5,5,0,0,0-3.06-.94,6,6,0,0,0-3.62,1.18,7.11,7.11,0,0,0-2.44,3.33,20.51,20.51,0,0,0-.81,6.74V81.13h-8Z" />
	</g>
	<rect class="cls-11" y="291.89" width="1365" height="598" />
	<rect class="cls-12" x="0.01" y="364.72" width="195" height="145" />
	<rect class="cls-12" x="1174.71" y="364.37" width="190.21" height="475.67" />
	<rect class="cls-12" x="0.01" y="528.89" width="195" height="145" />
	<rect class="cls-12" x="0.01" y="695.04" width="195" height="145" />
	<circle class="cls-13" cx="1219.2" cy="342.06" r="13.28" />
	<g id="oven-body">
		<g id="oven-top">
			<rect class="cls-14" x="229.83" y="392.89" width="903" height="68.93" />
			<rect class="cls-8" x="220.83" y="291.89" width="921" height="121" />
			<path class="cls-15" d="M964.86,392.3v1.2a3.27,3.27,0,0,1-3.48,3.5h-3.72V382.31h3.53a3.27,3.27,0,0,1,3.48,3.5v.78a3,3,0,0,1-1.49,2.81A3,3,0,0,1,964.86,392.3Zm-5-7.89v4h1a1.38,1.38,0,0,0,1.58-1.58v-1.05a1.25,1.25,0,0,0-1.37-1.36Zm2.75,7.66a1.38,1.38,0,0,0-1.58-1.57h-1.17v4.41h1.38a1.26,1.26,0,0,0,1.37-1.37Z" />
			<path class="cls-15" d="M966.69,393.67v-8a3.57,3.57,0,0,1,7.14,0v8a3.57,3.57,0,0,1-7.14,0Zm4.91,0v-8a1.34,1.34,0,1,0-2.68,0v8a1.34,1.34,0,1,0,2.68,0Z" />
			<path class="cls-15" d="M976.08,382.31h2.22v12.6h4V397h-6.19Z" />
			<path class="cls-15" d="M984,382.31h2.23v12.6h4V397H984Z" />
			<path class="cls-15" d="M991.91,382.31h6.32v2.1h-4.09v4.09h3.25v2.1h-3.25v4.31h4.09V397h-6.32Z" />
			<path class="cls-15" d="M999.51,388.56h5v2.19h-5Z" />
			<path class="cls-15" d="M1006.4,382.31h2.23V397h-2.23Z" />
			<path class="cls-15" d="M1011.06,382.31h3.49a3.27,3.27,0,0,1,3.48,3.5v1.73a3.27,3.27,0,0,1-3.48,3.5h-1.26v6h-2.23Zm3.38,6.63a1.25,1.25,0,0,0,1.37-1.36v-1.81a1.25,1.25,0,0,0-1.37-1.36h-1.15v4.53Z" />
			<path class="cls-15" d="M1019.4,393.6v-.52l2.14-.23v.54c0,1.07.55,1.73,1.43,1.73a1.32,1.32,0,0,0,1.43-1.41c0-.93-.38-1.6-2-3.17-2.21-2.08-2.83-3.21-2.83-4.83,0-2.18,1.26-3.61,3.38-3.61s3.38,1.43,3.38,3.63v.38l-2.15.23v-.42c0-1.13-.44-1.72-1.21-1.72s-1.22.48-1.22,1.4.46,1.6,2,3.17c2.14,2.15,2.83,3.22,2.83,4.83a3.59,3.59,0,1,1-7.18,0Z" />
			<path class="cls-15" d="M1028.39,393.77V382.31h2.22v11.46a1.24,1.24,0,1,0,2.48,0V382.31h2.18v11.46a3.44,3.44,0,1,1-6.88,0Z" />
			<path class="cls-15" d="M1047.75,382.31V397h-2.23V386.93L1043.44,397h-1.55l-2.08-10.07V397h-2.18V382.31h3.15l1.93,9.38,1.84-9.38Z" />
			<path class="cls-15" d="M1049.6,388.56h5v2.19h-5Z" />
			<path class="cls-15" d="M1056.48,382.31h2.23V397h-2.23Z" />
			<path class="cls-15" d="M1061.15,382.31h2.45l2.84,9.87v-9.87h2.18V397h-2.35l-2.94-9.4V397h-2.18Z" />
			<path class="cls-15" d="M1075.45,393.75h-2.4l-.48,3.25h-2.23l2.44-14.69h3L1078.2,397h-2.27Zm-.3-2.14-.9-6.15-.9,6.15Z" />
			<path class="cls-15" d="M1078.32,382.31h7.1v2.1H1083V397h-2.22V384.41h-2.44Z" />
			<path class="cls-15" d="M1087,393.67v-8a3.57,3.57,0,0,1,7.14,0v8a3.57,3.57,0,0,1-7.14,0Zm4.92,0v-8a1.35,1.35,0,1,0-2.69,0v8a1.35,1.35,0,1,0,2.69,0Z" />
			<path class="cls-15" d="M1101.34,397l-1.62-6.06h-1.15V397h-2.23V382.31h3.49a3.27,3.27,0,0,1,3.48,3.5v1.62a3.33,3.33,0,0,1-1.53,3l1.87,6.57Zm-2.77-8.16h1.15a1.26,1.26,0,0,0,1.37-1.37v-1.7a1.25,1.25,0,0,0-1.37-1.36h-1.15Z" />
			<path class="cls-15" d="M1111.42,385.48h-2.52v-1.56a3.72,3.72,0,0,0,3.19-1.61h1.55V397h-2.22Z" />
			<path class="cls-15" d="M1116.19,394.8h2.22V397h-2.22Z" />
			<path class="cls-15" d="M1120.76,393.67v-8a3.57,3.57,0,0,1,7.14,0v8a3.57,3.57,0,0,1-7.14,0Zm4.92,0v-8a1.35,1.35,0,1,0-2.69,0v8a1.35,1.35,0,1,0,2.69,0Z" />
			<path class="cls-15" d="M939.31,384s-8,.78-9.27,7.94,9,6.37,14.8,5.69,8.19-6.95,3.82-10.54A13.9,13.9,0,0,0,939.31,384Z" />
		</g>
		<rect class="cls-8" x="223.18" y="437.6" width="921" height="454" />
		<rect class="cls-13" x="311.68" y="516.6" width="739.32" height="296" />
	</g>
	<text class="cls-16" transform="translate(272.61 320)">
		TITLER
	</text>
	<text class="cls-16" transform="translate(395.27 320)">
		LENKER
	</text>
	<text class="cls-16" transform="translate(542.56 320)">
		<tspan class="cls-17">
			B
		</tspan>
		<tspan x="9.16" y="0">
			AK!
		</tspan>
	</text>
	<g id="on-button">
		<path id="on-button-indicator" class="cls-18" d="M581.67,334.64a7,7,0,0,1,7,7v46a7,7,0,0,1-7,7h-46a7,7,0,0,1-7-7v-46a7,7,0,0,1,7-7h46m0-5h-46a12,12,0,0,0-12,12v46a12,12,0,0,0,12,12h46a12,12,0,0,0,12-12v-46a12,12,0,0,0-12-12Z" />
		<g id="on-button-panel">
			<rect class="cls-19" x="528.67" y="334.64" width="60" height="60" rx="7" />
			<path class="cls-14" d="M560.67,345.2v-2.89h-4v3a20,20,0,1,0,4-.1Zm-1.5,35.94a16,16,0,0,1-2.5-31.8v11.3h4V349.21a16,16,0,0,1-1.5,31.93Z" />
		</g>
	</g>
	<g id="controller_titles">
		<path class="cls-18" d="M296,397.89a34,34,0,0,1-30.38-18.74h-4.36L259.93,375a37.49,37.49,0,0,1,0-22.64l1.33-4.19h4.61a34,34,0,0,1,60.26,0h3.61l1.33,4.19a37.49,37.49,0,0,1,0,22.64l-1.33,4.19h-3.36A34,34,0,0,1,296,397.89Z" />
		<path class="cls-18" d="M326.82,363.64a31.43,31.43,0,0,1-1.47,9.51h-2.93a28,28,0,0,1-52.84,0h-3.93a31.5,31.5,0,0,1,0-19h4.1a28,28,0,0,1,52.5,0h3.1A31.43,31.43,0,0,1,326.82,363.64Z" />
		<g id="controller">
			<circle class="cls-14" cx="296" cy="363.89" r="28" />
			<path class="cls-19" d="M325.35,354.14h-59.7a31.46,31.46,0,0,0,0,19h59.7a31.46,31.46,0,0,0,0-19Z" />
			<polygon class="cls-14" points="314.81 370.87 312.69 368.75 317.21 364.23 312.94 359.95 315.06 357.83 321.45 364.23 314.81 370.87" />
		</g>
	</g>
	<g id="controller_links">
		<g id="controller-indicator">
			<path class="cls-18" d="M422,397.89a34,34,0,0,1-30.38-18.74h-4.36L385.93,375a37.49,37.49,0,0,1,0-22.64l1.33-4.19h4.61a34,34,0,0,1,60.26,0h3.61l1.33,4.19a37.49,37.49,0,0,1,0,22.64l-1.33,4.19h-3.36A34,34,0,0,1,422,397.89Z" />
			<path class="cls-18" d="M452.82,363.64a31.43,31.43,0,0,1-1.47,9.51h-2.93a28,28,0,0,1-52.84,0h-3.93a31.5,31.5,0,0,1,0-19h4.1a28,28,0,0,1,52.5,0h3.1A31.43,31.43,0,0,1,452.82,363.64Z" />
		</g>
		<g id="controller-handle">
			<circle class="cls-14" cx="422" cy="363.89" r="28" />
			<path class="cls-19" d="M451.35,354.14h-59.7a31.46,31.46,0,0,0,0,19h59.7a31.46,31.46,0,0,0,0-19Z" />
			<polygon class="cls-14" points="440.81 370.87 438.69 368.75 443.21 364.23 438.94 359.95 441.06 357.83 447.45 364.23 440.81 370.87" />
		</g>
	</g>
	<g id="oven-door-outside">
		<rect class="cls-8" x="223.18" y="437.6" width="921" height="454" />
		<rect class="cls-14" x="314.02" y="526.76" width="739.32" height="296.21" />
		<rect class="cls-14" x="471.68" y="467.1" width="424" height="36" />
		<g id="oven-glass">
			<rect class="cls-13" x="314.02" y="543.25" width="739.32" height="279.5" />
			<polygon class="cls-20" points="409.97 822.6 622.96 543.18 672.11 542.99 460.86 822.97 409.97 822.6" />
			<polygon class="cls-20" points="548.59 822.6 764.7 543.36 953.25 543.36 741.8 822.79 548.59 822.6" />
		</g>
	</g>
	<g id="glove">
		<path id="outline" class="cls-18" d="M1269.64,700.06a43.24,43.24,0,0,1-8.92-1c-38.68-8.22-57.08-16.63-65.64-30-8.14-12.72-6.12-28.73-2.59-50.45-5.41,9.32-12.87,16.34-23,16.34a25,25,0,0,1-9.84-2.16c-15.54-6.65-16-33.87-1.49-83.21,9.5-32.27,22.46-63.51,24.15-67.53l28.47-129.33L1363,377.33l-1.16,5.18c-.14.61-13.77,61.65-29.76,140.38-4,19.48-6.67,40.58-9.28,61-7.67,59.75-14.92,116.19-53.19,116.19Z" />
		<g id="glove-color">
			<path id="outline-2" data-name="outline" class="cls-18" d="M1208.49,403.06c-3.39-4.23-32.94-42.16-26.57-70.94,2.3-10.39,8.86-18.52,19-23.51a45,45,0,0,1,19.82-5.1,31.61,31.61,0,0,1,17,4.81c18.64,11.64,22.7,40.23,22.66,49.33-.05,10.16-7.05,32.57-8.45,37l-1.77,5.55-20.55-6.56-17.47,14Zm12.17-76.27c-2.61,0-5.79.92-9.45,2.73s-5.76,4.2-6.52,7.63c-3.13,14.12,13.46,40.68,22,51.33l2,2.44,1.09-3.41c3.53-11.05,7.33-25.74,7.34-30,0-5.32-3.44-24.3-11.69-29.45A8.67,8.67,0,0,0,1220.66,326.79Z" />
			<path id="handle" class="cls-21" d="M1213,399.42c-1.28-1.6-31.32-39.43-25.43-66,1.93-8.73,7.27-15.3,15.85-19.54,14.82-7.32,25.13-4.36,31.18-.58,16.66,10.41,19.94,37.64,19.91,44.36,0,9.5-7.34,32.61-8.17,35.21l-11.11-3.54c2.94-9.18,7.6-25.91,7.62-31.72,0-5.59-3.36-27.51-14.43-34.42-5.21-3.25-11.69-2.88-19.83,1.14-5.34,2.64-8.49,6.43-9.63,11.6-3.9,17.56,15.38,46.55,23.13,56.23Z" />
			<path class="cls-1" d="M1214.93,358.41l-27.56,125.16s-55.88,131.6-25.48,144.63c31.54,13.52,39.3-55.57,39.3-55.57s5-10,.22,23.5c-8.78,61.85-22.63,80.33,60.68,98,54.1,11.5,49.26-92.6,65.45-172.29s29.78-140.47,29.78-140.47Z" />
			<g class="cls-22">
				<line class="cls-23" x1="1248.71" y1="305.76" x2="1435.29" y2="515.84" />
				<line class="cls-23" x1="1272.65" y1="275.33" x2="1459.22" y2="485.41" />
				<line class="cls-23" x1="1218.76" y1="328.12" x2="1405.33" y2="538.2" />
				<line class="cls-23" x1="1179.61" y1="393.62" x2="1366.19" y2="603.7" />
				<line class="cls-23" x1="1203.55" y1="363.19" x2="1390.12" y2="573.27" />
				<line class="cls-23" x1="1173.14" y1="444.15" x2="1359.72" y2="654.23" />
				<line class="cls-23" x1="1134.39" y1="511.78" x2="1320.97" y2="721.86" />
				<line class="cls-23" x1="1165.52" y1="490.38" x2="1352.1" y2="700.46" />
				<line class="cls-23" x1="1078.94" y1="505.9" x2="1265.51" y2="715.98" />
				<line class="cls-23" x1="1434.37" y1="438.18" x2="1153.48" y2="431.78" />
				<line class="cls-23" x1="1442.1" y1="400.24" x2="1161.2" y2="393.85" />
				<line class="cls-23" x1="1436.7" y1="475.48" x2="1155.8" y2="469.09" />
				<line class="cls-23" x1="1412.07" y1="547.7" x2="1131.17" y2="541.31" />
				<line class="cls-23" x1="1419.79" y1="509.77" x2="1138.9" y2="503.37" />
				<line class="cls-23" x1="1414.39" y1="585.01" x2="1133.5" y2="578.62" />
				<line class="cls-23" x1="1389.24" y1="659.81" x2="1108.34" y2="653.41" />
				<line class="cls-23" x1="1396.97" y1="621.87" x2="1116.07" y2="615.48" />
				<line class="cls-23" x1="1391.56" y1="697.11" x2="1110.67" y2="690.72" />
			</g>
			<path class="cls-18" d="M1225.71,582.27l1-4.65,8.33,1.74-7-8.31,1.15-5.52,9,10.69,15.31-6.46-1.13,5.45-12.3,5.21,10.74,2.24-1,4.65Z" />
			<path class="cls-18" d="M1237.54,554.75a9.71,9.71,0,0,1,2.26-4.5,9.36,9.36,0,0,1,4.16-2.76,9.45,9.45,0,0,1,5-.27,9.69,9.69,0,0,1,4.47,2.25,9.19,9.19,0,0,1,2.72,4.14,9.55,9.55,0,0,1,.24,5,9.11,9.11,0,0,1-4.1,6,9.69,9.69,0,0,1-13.56-3.2A9.14,9.14,0,0,1,1237.54,554.75Zm4.24.8a4.71,4.71,0,0,0,.73,3.79,5.28,5.28,0,0,0,3.43,2.17,5.38,5.38,0,0,0,4.07-.59,4.68,4.68,0,0,0,2.17-3.18,4.77,4.77,0,0,0-.73-3.81,5.32,5.32,0,0,0-3.47-2.18,5.24,5.24,0,0,0-4,.59A4.75,4.75,0,0,0,1241.78,555.55Z" />
			<path class="cls-18" d="M1241.68,537.24l2,.41a8.45,8.45,0,0,1-1.27-3,7.6,7.6,0,0,1,0-3.15,7.93,7.93,0,0,1,3.89-5.39,9.74,9.74,0,0,1,7.29-1,9.5,9.5,0,0,1,6.15,3.92,8.15,8.15,0,0,1,1.44,6.56,7.73,7.73,0,0,1-1.15,2.76,9,9,0,0,1-2.35,2.27l8.43,1.76-.93,4.45-24.42-5.09Zm4.66-4a4.8,4.8,0,0,0,.72,3.82,5.29,5.29,0,0,0,3.48,2.19,5.53,5.53,0,0,0,4.15-.59,4.75,4.75,0,0,0,2.2-3.21,4.64,4.64,0,0,0-.77-3.77,5.47,5.47,0,0,0-3.52-2.21,5.39,5.39,0,0,0-4.06.6A4.69,4.69,0,0,0,1246.34,533.29Z" />
			<path class="cls-18" d="M1238.39,516.19a2.79,2.79,0,0,1,1.28-1.84,2.85,2.85,0,0,1,2.24-.42,2.89,2.89,0,0,1,1.88,1.27,2.89,2.89,0,0,1-.86,4,2.93,2.93,0,0,1-2.27.41,2.93,2.93,0,0,1-2.27-3.45Zm6.89,3.78.94-4.48,17.88,3.73-.94,4.49Z" />
			<path class="cls-18" d="M1261.05,495.64l-3,14.41a4.88,4.88,0,0,0,3.38-1,5.31,5.31,0,0,0,1.85-3.22,6.11,6.11,0,0,0-.86-4.69l2.57-3.41a9.15,9.15,0,0,1,2.26,4,10.85,10.85,0,0,1,0,4.88,9.5,9.5,0,0,1-4.09,6.3,9.26,9.26,0,0,1-7.2,1.26,9.58,9.58,0,0,1-6.24-4.06,9.05,9.05,0,0,1-1.32-7.18,9.38,9.38,0,0,1,4.14-6.3,10,10,0,0,1,7.69-1.16Zm-4.47,3.75a4.57,4.57,0,0,0-2.8,1.24,5.16,5.16,0,0,0-1.57,2.84,5.45,5.45,0,0,0,.37,3.51,5.85,5.85,0,0,0,2,2.13Z" />
			<path class="cls-18" d="M1251.35,490.92l.8-3.85,2.26.47a4.85,4.85,0,0,1-1.68-2.08,4.14,4.14,0,0,1-.22-2.41,4.29,4.29,0,0,1,.85-1.73l3.56,2.21a3.13,3.13,0,0,0-.66,1.21,2.11,2.11,0,0,0,.92,2c.75.65,2.38,1.24,4.87,1.76l.88.17,7.23,1.51-.93,4.45Z" />
			<path class="cls-18" d="M1283.21,468.44l-31-7.2a7.57,7.57,0,0,1-5.66-9.08l4.73-20.34a7.57,7.57,0,0,1,9.07-5.66l1.2.28.88-3.77c0-.05,0-.1,0-.16l-1.2-.28a11.62,11.62,0,0,0-13.93,8.68l-4.72,20.34a11.62,11.62,0,0,0,8.67,13.93l31,7.19a11.61,11.61,0,0,0,13.88-8.52l-3.93-.91A7.56,7.56,0,0,1,1283.21,468.44Z" />
			<path class="cls-18" d="M1262.49,422.51l3.93.91a7.58,7.58,0,0,1,9-5.49l31,7.19a7.58,7.58,0,0,1,5.66,9.08l-4.73,20.34a7.57,7.57,0,0,1-9.08,5.66l-1.19-.28-.88,3.77a.75.75,0,0,1,0,.16l1.21.28a11.6,11.6,0,0,0,13.92-8.67l4.73-20.35a11.61,11.61,0,0,0-8.68-13.92l-31-7.2A11.62,11.62,0,0,0,1262.49,422.51Z" />
			<path class="cls-18" d="M1261.65,443.93l3.85-16.58-3.93-.91L1257.72,443a11.63,11.63,0,0,0,8.68,13.93l25.84,6a1,1,0,0,0,0-.16l.87-3.77-25.85-6A7.58,7.58,0,0,1,1261.65,443.93Z" />
			<path class="cls-18" d="M1261.57,426.44l3.93.91.88-3.77c0-.05,0-.1,0-.16l-3.93-.91c0,.06,0,.11,0,.16Z" />
			<path class="cls-18" d="M1297.1,459.92l-3.94-.91-.87,3.77a1,1,0,0,1,0,.16l3.93.91a.75.75,0,0,0,0-.16Z" />
		</g>
	</g>
	<path class="cls-24" d="M546.09,63.7c0,.92,0,1.66-1.18,1.66a1.72,1.72,0,1,1,0-3.32C546.11,62,546.09,62.79,546.09,63.7Z" />
	<path class="cls-24" d="M564.14,74.06c.66.64,1.21,1.13.38,2a2,2,0,0,1-2.7.41c-.66-.63-.14-1,.69-1.82S563.48,73.43,564.14,74.06Z" />
	<path class="cls-24" d="M561.65,63.94c0,.91-.6,0-1.8,0s-1.54-.11-1.54-1,.34-.64,1.54-.64A1.6,1.6,0,0,1,561.65,63.94Z" />
	<path class="cls-24" d="M554.79,69.83c-.91-.12-1.65-.18-1.5-1.37s1-2.06,1.92-1.95a2,2,0,0,1,1.37,2.36C556.43,70.06,555.7,69.94,554.79,69.83Z" />
	<path class="cls-24" d="M540.59,73.66c0,.92,0,.66-1.18.66s-2.17.26-2.17-.66A2,2,0,0,1,539.41,72C540.61,72,540.59,72.74,540.59,73.66Z" />
	<rect id="countertop" class="cls-25" y="247.89" width="1365" height="45" />
</svg>
